<svg version="1.0" xmlns="http://www.w3.org/2000/svg" width="933.333" height="933.333" viewBox="0 0 700 700"><path d="M347.9 2.1c-7.8 1.2-14.6 4.8-19.4 10.3-2.5 2.8-4.1 5.2-3.5 5.4.5.2.7.9.4 1.5-.4.7.8-.5 2.6-2.6 3.3-3.9 11.8-10.2 12.6-9.4.3.3-1 1.4-2.8 2.5-7.9 4.9-14.7 14-16.5 22.2-.7 2.8-1 17.5-.5 21.2.4 3.7 2.2 5.4 2.2 2.2 0-.8.5-1.2 1-.9.6.3 1 1.3 1 2.1 0 1.2-20.5 1.4-151.3 1.6l-151.2.3 58.8 103c32.3 56.6 60.2 105.5 61.9 108.5 1.7 3 22.8 39.9 46.8 82 24 42.1 44.8 78.5 46.2 81 1.4 2.5 6.1 10.6 10.3 18 4.3 7.4 9 15.7 10.5 18.5 1.5 2.7 10.8 18.9 20.6 36 9.7 17 18.2 31.9 18.8 33 .6 1.1 6.5 11.3 13 22.8 6.5 11.4 11.7 20.9 11.5 21.1-.2.2-4.2 1.5-8.9 3.1-4.7 1.5-9 3.2-9.7 3.7-1.9 1.6-2.6 6.7-1.3 10.1 2.5 6.4 8 17.6 9 18.2.6.3 1 1.4 1 2.4s.7 2.4 1.5 3.1c.8.7 1.3 1.5 1 1.9-.2.4.3 2.1 1.2 3.7.8 1.6 1.7 4.2 2 5.9.3 1.6.9 3.8 1.4 4.7.5.9.9 2.8.9 4.2 0 1.4.5 2.8 1 3.1.6.3 1 1.4 1 2.3 0 1.9 7.6 13.3 9.6 14.5.8.4 1.4 1.4 1.4 2.1 0 2.1 11.5 10.6 14.6 10.7 4.8.3 5.2 0 6.9-3.5 1.5-3.1 1.5-3.8-.1-9.7-2.2-8.1-2.6-23.9-.6-25.5.9-.7 1.4-3 1.3-6.7 0-3.1.4-5.9.9-6.2.4-.3 1.7.7 2.8 2.3 1.4 1.9 4.2 3.5 8.7 5.1 3.6 1.3 6.9 2.1 7.2 1.7.8-.8.8-.8-7.4-4-8.4-3.2-10.3-5.5-9.9-11.8.3-5.9 4-12.9 6.4-12.2 1.4.5 1.4.4.2-.5-1.5-1-.7-2.6 1.3-2.6.6 0 2.2-1.9 3.5-4.2 1.3-2.4 2.1-4.3 1.8-4.3-.3 0-1.5 1.9-2.7 4.2-1.2 2.4-2.4 3.8-2.6 3.2-.4-1.3 6.9-14.3 8.1-14.4.5 0 .4.6-.1 1.2-1.5 2-2.4 5-1.3 4.3.6-.3 1-1.2 1-2 0-.7.6-1.5 1.3-1.8.9-.3.9-.7 0-1.8s-.7-2 .9-3.9l2-2.5-1.6 2.7c-.9 1.6-1.2 2.8-.7 2.8.8 0 2.4-2.3 7.2-10.7 1.1-1.8 2.8-4.8 3.8-6.5 30.3-52.1 53.7-94.5 52.9-95.5-1.5-1.9 3.8-10.7 6-9.8.8.3 3.4 1 5.7 1.5 2.3.5 5.4 1.6 6.9 2.4 2.9 1.4 6.4 1.3 9.7-.5 2.1-1.1 3.6-7.6 2.3-9.5-10.4-14.8-11.7-17.5-9.6-18.8.5-.3.7-2 .5-3.8-.4-3.1-.3-3.2 1.1-1.4.9 1.1 1.9 1.7 2.2 1.3.4-.3-.1-1.3-1-2.2-1.5-1.5-1.5-1.9.3-4.3 1-1.5 2.8-4.7 4.1-7.1 1.6-3.2 2.4-4 3-3 .5.7 1.1 1.1 1.3.9.3-.3 13.2-22.8 28.7-50s30.9-54.2 34.3-60c3.3-5.8 6.9-12.1 8-14 1-1.9 8.3-14.5 16-28 7.7-13.5 15.4-27 17-30 1.6-3 3.3-6 3.7-6.5.5-.6 2-3.3 3.5-6 1.6-2.8 9.9-17.4 18.5-32.5 28.1-49 68.2-119.4 70.8-124 1.4-2.5 3.1-5.4 3.8-6.5.8-1.1 1.4-2.3 1.4-2.7 0-.5-60.7-.8-135-.8-74.2 0-135-.2-135-.4 0-.3.5-1.7 1.1-3.3.6-1.5 1.3-4.6 1.4-6.8.2-2.2.7-6 1-8.3.9-5.7-1.5-12.1-6.9-18.6-3.1-3.7-6.1-5.9-13.1-9.3-8.4-4.1-9.4-4.4-16.3-4.1-4.1.1-7.6.6-7.8 1-1 1.6-4.2.7-5.7-1.5-2.5-3.8-6.6-5.4-11.8-4.6zM260 114.2c0 .6-5.7 6.8-12.7 13.7-7.1 6.9-15.1 15.3-17.9 18.6-5.9 6.9-16.3 21.5-18.8 26.3-1.5 2.9-4.9 14.3-6.2 21.1-.3 1.2-1.1 5.1-1.9 8.5-.8 3.3-1.7 7.9-1.9 10.1-.3 2.2-.8 5.6-1 7.5-1.4 10.9-5.1 27.9-5.8 27.2-.5-.5-4.2-6.7-8.2-13.8-5.2-9-7.1-13.4-6.6-14.5.6-1.1-.7-4.3-4.4-10.5-2.9-4.9-5.5-9.6-5.9-10.4-.4-.8-1.1-2.2-1.7-3-2.5-3.8-46-80.5-46-81.2 0-.4 31.3-.8 69.5-.8 51.9 0 69.5.3 69.5 1.2zm143.5.8c1.7 1.1 4.4 2 6.2 2 1.7 0 3.5.6 4 1.2 1.7 2.6 3 13.4 3.2 25.6.1 10-.2 13.1-1.4 14.7-1.5 1.8-1.7 1.8-6.1-2.5-3.1-3.2-4.9-6-5.9-9.5-3.3-11-9.2-17.6-21.5-23.9-9.6-4.9-13-7.2-13-8.8 0-.4 7.1-.8 15.8-.8 14 0 16 .2 18.7 2zm174.3-1.2c-.4.9-10.8 19.6-12.3 22-.6 1-4.1 7.1-7.8 13.7s-7.2 12.7-7.8 13.5c-.5.8-23.9 41.8-51.9 91s-51.4 90.2-52 91c-1 1.5-1 1 .6-11.5.3-2.8 1.7-10.6 3-17.5s3.1-16.6 4-21.5c.8-5 1.7-10.1 1.9-11.4.2-1.4.9-4.7 1.5-7.5s1.2-6 1.4-7.1c.2-1.1.9-3.8 1.4-6 2.3-8.6 2.5-10.4 2.7-23.4.2-12.3 0-13.7-2.2-18.1-2.7-5.4-5.1-7.3-10.9-8.9-6.6-1.7-10.1-1.9-14.1-1.1-2.1.5-6.3 1.1-9.3 1.5-8.8 1.1-22.1 3.5-28 5.1-3 .8-6.2 1.6-7 1.8-4.1 1.1-16.3 4.7-23.2 6.9l-7.8 2.5.5-3.7c.7-5.1 1.3-7.9 2.5-11.7.7-1.9 1.3-4.9 1.5-6.7.2-1.7.4-3.2.5-3.2.1 0 .3-.9.5-2 .8-3.9 3-7.2 9.5-13.5 4.9-4.9 7-7.6 7.7-10.5l.9-4 1.9 3c7.7 12.1 20.6 22.2 34.7 26.9 5.2 1.8 10.8 1.8 11.5-.1.3-.7 1.2-1.3 2.1-1.3.8 0 1.2-.3.9-.6-.3-.4-.2-1.5.4-2.6 1.1-1.9 2.2-20.1 2.1-31.9-.1-7.9-.5-10.8-3.2-26.4-1.2-6.6-2.4-15.5-2.6-19.8l-.6-7.7h73.7c40.5 0 73.5.3 73.3.8zm-300.4 31.1c.3.5.8 2.9 1.1 5.2.3 2.4.8 5.3 1.2 6.4.3 1.1.7 7.4.7 14 .1 6.6.5 12.5.9 13.1 1.6 2.7 2.7 26.5 1.4 33.4-.3 1.9-.9 5.7-1.3 8.5-.8 6.3-6.5 23.9-9.2 28.5-4 6.9-5.2 15.7-3.7 27 .4 3 1.1 6.5 1.6 7.7.5 1.3.7 2.3.4 2.3-.8 0 3.4 12.8 5.8 17.5 4.1 8 14.9 17.5 19.9 17.5 1.1 0 8.6 7.4 8.7 8.6.1.7 3.5 5.5 5.7 7.9 1.1 1.2 1.8 2.7 1.6 3.3-.2.7.1 1.2.7 1.2 1.6 0 9.1 14.8 10.5 21 .2.8 1.6 4.9 3.1 9 7.9 22 12.3 39.6 13.1 53.2.6 10.5 1 15.9 1.9 23 .5 4.4.1 6.7-2.3 13.3-1.6 4.4-3.7 11.3-4.7 15.3-.9 3.9-2.1 7.2-2.5 7.2-1.2 0-3.3-5.8-2.7-7.3.3-.8-.4-2.7-1.4-4.3-1.1-1.6-2.4-3.9-3-5.2-.5-1.3-1.3-2-1.9-1.7-.5.3-.7 0-.5-.8.3-.7-20.6-38.4-46.5-83.6-25.8-45.3-47-82.7-47-83.2 0-.4-.4-1-.9-1.4-1-.6-.7 2.7.4 4.5.3.6.3 1-.2 1-1.6 0-14.8-25-14.4-27.3.8-5.4 4.5-4.1 6.6 2.3 1.8 5.6 4.4 8.3 6.5 7 1.1-.7 1.2-1.5.3-4.2-3.4-10.4-5.4-14.4-9.4-18.9-2.4-2.8-4.9-6-5.6-7.2-2.2-4-.2-16.7 5.3-32.8 2-5.7 5.5-17 7.9-25.1 6.2-20.9 6.8-22.1 16-28.8 6.9-5.1 20.8-16.1 21.5-17.1 1.1-1.4 12.5-10.9 13.2-10.9.4 0 .9.4 1.2.9zm135.2 138.4c.1 8.8 1 21.7 1.9 26.7.1.8.5 4.9.9 9s.9 10 1.2 13c.2 3 .6 8.2.8 11.5.2 3.3.7 9.1 1.1 13 1 10.1 1 10.5-1 10.5-1.7 0-2 3.2-.5 6.1.9 1.6.6 2.1-1.7 3.1-1.5.7-4.8 2.8-7.2 4.6-2.4 1.8-5.8 3.9-7.5 4.6-4.4 1.8-10.7 9.1-9.9 11.3.4 1 2.2 3.9 4 6.5 1.8 2.6 3.3 5 3.3 5.3 0 .3.8 1.3 1.8 2.3 5.9 6.3 6.6 3.7-8.5 30.2-12.9 22.6-16.4 28-12.9 19.6 1.4-3.4 3-10.9 2.7-13.1-.9-7.5-.6-29.8.5-36.1.9-5.6 1.2-14.8.9-31.4-.5-26-.7-28.5-3.8-41.5-1.1-5-2.1-9.5-2.2-10-.1-.6-.4-1.7-.8-2.5-2-4.9-6.5-20.4-6.1-21.2.3-.5.1-1.5-.5-2.2-.6-.7-.9-2-.6-2.7.6-1.5 16.6-13.1 27-19.6 6.3-4 15.6-8.2 16.5-7.5.3.2.5 4.9.6 10.5zM327 478c1.2 1.6 1.8 3 1.3 3-.4 0-1.6-1.4-2.5-3-2.2-3.9-1.5-3.9 1.2 0z"/><path d="M330.3 483.4c.1 1.1.9 2.1 1.7 2.3 1 .3 1.1.2.4-.4-.6-.4-1.4-1.5-1.7-2.3-.5-1.1-.6-.9-.4.4zM322 21.5c-.6 1.4-1.5 3.7-2.1 5.2-.5 1.6-.6 2.3-.1 1.8 1.2-1.3 4.3-9.5 3.7-9.5-.3 0-1 1.1-1.5 2.5zM360.5 608c-.3.5-.2 1 .4 1 .5 0 1.3-.5 1.6-1 .3-.6.2-1-.4-1-.5 0-1.3.4-1.6 1zm-2.3 4.2c-1.5 1.5-1.5 2.8 0 2.8.6 0 .8-.3.5-.7-.4-.3-.2-1.2.4-2 1.4-1.6.7-1.7-.9-.1z"/></svg>